<svg width="60" height="60" viewBox="0 0 60 60" fill="none" xmlns="http://www.w3.org/2000/svg">
<mask id="mask0_1117_54" style="mask-type:alpha" maskUnits="userSpaceOnUse" x="0" y="0" width="60" height="60">
<rect width="60" height="60" fill="#D9D9D9"/>
</mask>
<g mask="url(#mask0_1117_54)">
<g filter="url(#filter0_g_1117_54)">
<g clip-path="url(#clip0_1117_54)">
<path d="M22.9095 11V27.112C22.3053 26.9175 21.6741 26.8203 21.0395 26.824C20.4091 26.7784 19.776 26.8632 19.1798 27.0731C18.5836 27.283 18.0371 27.6135 17.5743 28.044C17.1115 28.4745 16.7424 28.9957 16.4901 29.5752C16.2377 30.1547 16.1074 30.7799 16.1074 31.412C16.1074 32.0441 16.2377 32.6693 16.4901 33.2488C16.7424 33.8283 17.1115 34.3495 17.5743 34.78C18.0371 35.2105 18.5836 35.541 19.1798 35.7509C19.776 35.9608 20.4091 36.0456 21.0395 36C21.6841 36.0179 22.3256 35.9047 22.9251 35.6673C23.5246 35.4298 24.0697 35.0732 24.5273 34.6188C24.9849 34.1645 25.3455 33.622 25.5872 33.0242C25.8289 32.4264 25.9467 31.7857 25.9335 31.141V17.563H40.1335V27.113C39.5293 26.9185 38.8981 26.8213 38.2635 26.825C37.6331 26.7794 37 26.8642 36.4038 27.0741C35.8076 27.2839 35.2611 27.6145 34.7983 28.045C34.3355 28.4755 33.9664 28.9967 33.7141 29.5762C33.4617 30.1557 33.3314 30.7809 33.3314 31.413C33.3314 32.0451 33.4617 32.6703 33.7141 33.2498C33.9664 33.8293 34.3355 34.3505 34.7983 34.781C35.2611 35.2115 35.8076 35.5421 36.4038 35.7519C37 35.9618 37.6331 36.0466 38.2635 36.001C38.9083 36.0192 39.5501 35.9061 40.15 35.6688C40.7498 35.4314 41.2952 35.0747 41.753 34.6202C42.2108 34.1658 42.5716 33.623 42.8133 33.025C43.0551 32.4269 43.1729 31.786 43.1595 31.141V11H22.9095Z" fill="#C2C2C2"/>
</g>
<path d="M40.7725 43.6104V45.2441H46.877V47.2471H40.7725V51H38.2363V41.6074H47.2119V43.6104H40.7725Z" fill="#C2C2C2"/>
<path d="M29.6299 43.6104V45.2441H35.7344V47.2471H29.6299V51H27.0938V41.6074H36.0693V43.6104H29.6299Z" fill="#C2C2C2"/>
<path d="M24.7832 46.3105C24.7832 47.1172 24.6351 47.8304 24.3389 48.4502C24.0426 49.0654 23.6188 49.5804 23.0674 49.9951C22.516 50.4098 21.846 50.7243 21.0576 50.9385C20.2738 51.1481 19.3919 51.2529 18.4121 51.2529C17.4323 51.2529 16.5459 51.1481 15.7529 50.9385C14.9645 50.7243 14.2923 50.4098 13.7363 49.9951C13.1803 49.5804 12.752 49.0654 12.4512 48.4502C12.1504 47.8304 12 47.1172 12 46.3105C12 45.5039 12.1504 44.793 12.4512 44.1777C12.752 43.5579 13.1803 43.0407 13.7363 42.626C14.2923 42.2113 14.9645 41.8991 15.7529 41.6895C16.5459 41.4753 17.4323 41.3682 18.4121 41.3682C19.3919 41.3682 20.2738 41.4753 21.0576 41.6895C21.846 41.8991 22.516 42.2113 23.0674 42.626C23.6188 43.0407 24.0426 43.5579 24.3389 44.1777C24.6351 44.793 24.7832 45.5039 24.7832 46.3105ZM22.2197 46.3105C22.2197 45.9596 22.1628 45.611 22.0488 45.2646C21.9395 44.9137 21.7412 44.5993 21.4541 44.3213C21.1715 44.0433 20.7842 43.8177 20.292 43.6445C19.7998 43.4714 19.1732 43.3848 18.4121 43.3848C17.9017 43.3848 17.4528 43.4258 17.0654 43.5078C16.6781 43.5853 16.3431 43.6947 16.0605 43.8359C15.778 43.9772 15.541 44.1436 15.3496 44.335C15.1582 44.5218 15.0055 44.7246 14.8916 44.9434C14.7777 45.1576 14.6956 45.3831 14.6455 45.6201C14.5999 45.8525 14.5771 46.0827 14.5771 46.3105C14.5771 46.543 14.5999 46.7777 14.6455 47.0146C14.6956 47.2516 14.7777 47.4795 14.8916 47.6982C15.0055 47.9124 15.1582 48.113 15.3496 48.2998C15.541 48.4867 15.778 48.6507 16.0605 48.792C16.3431 48.9287 16.6781 49.0381 17.0654 49.1201C17.4528 49.1976 17.9017 49.2363 18.4121 49.2363C19.1732 49.2363 19.7998 49.1497 20.292 48.9766C20.7842 48.8034 21.1715 48.5778 21.4541 48.2998C21.7412 48.0218 21.9395 47.7096 22.0488 47.3633C22.1628 47.0124 22.2197 46.6615 22.2197 46.3105Z" fill="#C2C2C2"/>
</g>
</g>
<defs>
<filter id="filter0_g_1117_54" x="11" y="10" width="37.2119" height="42.2529" filterUnits="userSpaceOnUse" color-interpolation-filters="sRGB">
<feFlood flood-opacity="0" result="BackgroundImageFix"/>
<feBlend mode="normal" in="SourceGraphic" in2="BackgroundImageFix" result="shape"/>
<feTurbulence type="fractalNoise" baseFrequency="0.3333333432674408 0.3333333432674408" numOctaves="3" seed="2755" />
<feDisplacementMap in="shape" scale="2" xChannelSelector="R" yChannelSelector="G" result="displacedImage" width="100%" height="100%" />
<feMerge result="effect1_texture_1117_54">
<feMergeNode in="displacedImage"/>
</feMerge>
</filter>
<clipPath id="clip0_1117_54">
<rect width="27" height="25" fill="white" transform="translate(16.1592 11)"/>
</clipPath>
</defs>
</svg>
